; NON-PLATED HOLES START AT T1
; THROUGH (PLATED) HOLES START AT T100
M48
INCH
T1C0.086614
T100C0.035000
T101C0.035433
T102C0.038000
%
T1
X018685Y017217
X001461Y017174
X001672Y001500
X018541Y001486
T100
X017910Y012301
X014910Y012301
X013910Y012301
X008910Y012301
X016910Y006301
X011910Y012301
X010060Y014917
X007910Y012301
X015910Y006301
X006060Y014917
X010910Y012301
X009910Y006301
X012910Y006301
X010181Y010503
X006910Y006301
X016910Y012301
X015910Y012301
X009910Y012301
X017910Y006301
X017126Y008793
X012910Y012301
X006910Y012301
X014910Y006301
X013910Y006301
X013126Y008793
X008910Y006301
X006181Y010503
X011910Y006301
X007910Y006301
X010910Y006301
T101
X006840Y017485
X007080Y016285
T102
X016382Y002298
X001552Y013030
X016556Y016823
X015382Y002298
X015556Y016823
X001499Y004309
X012382Y002298
X012556Y016823
X011382Y002298
X001552Y012030
X003987Y016850
X014382Y002298
X014556Y016823
X013382Y002298
X013556Y016823
X001552Y014030
X011556Y016823
X001552Y011030
X001499Y005309
X004987Y016850
T00
M30
