G04 MADE WITH FRITZING*
G04 WWW.FRITZING.ORG*
G04 DOUBLE SIDED*
G04 HOLES PLATED*
G04 CONTOUR ON CENTER OF CONTOUR VECTOR*
%ASAXBY*%
%FSLAX23Y23*%
%MOIN*%
%OFA0B0*%
%SFA1.0B1.0*%
%ADD10C,0.088000*%
%ADD11C,0.085433*%
%ADD12C,0.085000*%
%ADD13C,0.096614*%
%ADD14R,0.085000X0.085000*%
%LNMASK0*%
G90*
G70*
G54D10*
X499Y1685D03*
X399Y1685D03*
G54D11*
X708Y1629D03*
X684Y1749D03*
G54D12*
X618Y1050D03*
X1018Y1050D03*
X1713Y879D03*
X1313Y879D03*
X1006Y1492D03*
X606Y1492D03*
G54D13*
X1854Y149D03*
X167Y150D03*
X1869Y1722D03*
X146Y1717D03*
G54D12*
X1791Y1230D03*
X1791Y630D03*
X1691Y1230D03*
X1691Y630D03*
X1591Y1230D03*
X1591Y630D03*
X1491Y1230D03*
X1491Y630D03*
X1391Y1230D03*
X1391Y630D03*
X1291Y1230D03*
X1291Y630D03*
X1191Y1230D03*
X1191Y630D03*
X1091Y1230D03*
X1091Y630D03*
X991Y1230D03*
X991Y630D03*
X891Y1230D03*
X891Y630D03*
X791Y1230D03*
X791Y630D03*
X691Y1230D03*
X691Y630D03*
G54D10*
X155Y1403D03*
X155Y1303D03*
X155Y1203D03*
X155Y1103D03*
X150Y531D03*
X150Y431D03*
X1638Y230D03*
X1538Y230D03*
X1438Y230D03*
X1338Y230D03*
X1238Y230D03*
X1138Y230D03*
X1656Y1682D03*
X1556Y1682D03*
X1456Y1682D03*
X1356Y1682D03*
X1256Y1682D03*
X1156Y1682D03*
G54D14*
X1791Y1230D03*
G04 End of Mask0*
M02*