G04 MADE WITH FRITZING*
G04 WWW.FRITZING.ORG*
G04 DOUBLE SIDED*
G04 HOLES PLATED*
G04 CONTOUR ON CENTER OF CONTOUR VECTOR*
%ASAXBY*%
%FSLAX23Y23*%
%MOIN*%
%OFA0B0*%
%SFA1.0B1.0*%
%ADD10C,0.075000*%
%ADD11C,0.078000*%
%ADD12C,0.075433*%
%ADD13R,0.075000X0.075000*%
%ADD14C,0.024000*%
%LNCOPPER1*%
G90*
G70*
G54D10*
X1803Y1046D03*
X1803Y446D03*
X1703Y1046D03*
X1703Y446D03*
X1603Y1046D03*
X1603Y446D03*
X1503Y1046D03*
X1503Y446D03*
X1403Y1046D03*
X1403Y446D03*
X1303Y1046D03*
X1303Y446D03*
X1203Y1046D03*
X1203Y446D03*
X1103Y1046D03*
X1103Y446D03*
X1003Y1046D03*
X1003Y446D03*
X903Y1046D03*
X903Y446D03*
X803Y1046D03*
X803Y446D03*
X703Y1046D03*
X703Y446D03*
G54D11*
X234Y1115D03*
X234Y1015D03*
X234Y915D03*
X234Y815D03*
X213Y502D03*
X213Y402D03*
X1641Y160D03*
X1541Y160D03*
X1441Y160D03*
X1341Y160D03*
X1241Y160D03*
X1141Y160D03*
X1665Y1265D03*
X1565Y1265D03*
X1465Y1265D03*
X1365Y1265D03*
X1265Y1265D03*
X1165Y1265D03*
G54D10*
X832Y1311D03*
X432Y1311D03*
G54D12*
X1668Y886D03*
X1956Y622D03*
X1236Y622D03*
X1476Y934D03*
G54D13*
X1803Y1046D03*
G54D14*
X1332Y819D02*
X1764Y502D01*
D02*
X1395Y1019D02*
X1332Y819D01*
D02*
X1764Y502D02*
X1740Y358D01*
X1740Y358D02*
X1524Y358D01*
X1524Y358D02*
X1362Y182D01*
D02*
X1211Y1018D02*
X1284Y742D01*
X1284Y742D02*
X1500Y526D01*
X1500Y526D02*
X660Y526D01*
X660Y526D02*
X636Y502D01*
X636Y502D02*
X636Y358D01*
X636Y358D02*
X948Y358D01*
X948Y358D02*
X1120Y182D01*
D02*
X1468Y1235D02*
X1476Y1126D01*
X1476Y1126D02*
X1884Y1126D01*
X1884Y1126D02*
X1884Y718D01*
X1884Y718D02*
X1788Y562D01*
X1788Y562D02*
X1872Y478D01*
X1872Y478D02*
X1860Y358D01*
X1860Y358D02*
X1452Y214D01*
X1452Y214D02*
X1447Y190D01*
D02*
X460Y1306D02*
X756Y1246D01*
X756Y1246D02*
X900Y1246D01*
X900Y1246D02*
X1092Y1342D01*
X1092Y1342D02*
X1524Y1342D01*
X1524Y1342D02*
X1551Y1291D01*
D02*
X235Y523D02*
X420Y694D01*
X420Y694D02*
X431Y1283D01*
D02*
X1207Y620D02*
X588Y574D01*
X588Y574D02*
X588Y310D01*
X588Y310D02*
X1068Y94D01*
X1068Y94D02*
X1236Y94D01*
X1236Y94D02*
X1239Y130D01*
D02*
X1694Y1255D02*
X1932Y1174D01*
X1932Y1174D02*
X1955Y651D01*
D02*
X1657Y913D02*
X1614Y1020D01*
D02*
X1670Y151D02*
X1908Y70D01*
X1908Y70D02*
X1944Y118D01*
X1944Y118D02*
X1955Y593D01*
D02*
X1796Y1018D02*
X1740Y814D01*
X1740Y814D02*
X1596Y814D01*
X1596Y814D02*
X1496Y914D01*
G04 End of Copper1*
M02*