solid OpenSCAD_Model
  facet normal -1 0 0
    outer loop
      vertex -7.5 -7.5 -50
      vertex -7.5 -7.5 50
      vertex -7.5 7.5 -50
    endloop
  endfacet
  facet normal -1 0 0
    outer loop
      vertex -7.5 7.5 -50
      vertex -7.5 -7.5 50
      vertex -7.5 7.5 50
    endloop
  endfacet
  facet normal 0 -1 0
    outer loop
      vertex -7.5 -7.5 50
      vertex -7.5 -7.5 -50
      vertex 7.5 -7.5 -50
    endloop
  endfacet
  facet normal 0 -1 0
    outer loop
      vertex 7.5 -7.5 50
      vertex -7.5 -7.5 50
      vertex 7.5 -7.5 -50
    endloop
  endfacet
  facet normal 0 0 -1
    outer loop
      vertex -5.5 -5.5 -50
      vertex 5.5 -5.5 -50
      vertex 7.5 -7.5 -50
    endloop
  endfacet
  facet normal 0 0 -1
    outer loop
      vertex -7.5 -7.5 -50
      vertex -7.5 7.5 -50
      vertex -5.5 -5.5 -50
    endloop
  endfacet
  facet normal 0 0 -1
    outer loop
      vertex -7.5 -7.5 -50
      vertex -5.5 -5.5 -50
      vertex 7.5 -7.5 -50
    endloop
  endfacet
  facet normal 0 0 -1
    outer loop
      vertex 5.5 7.5 -50
      vertex 7.5 -7.5 -50
      vertex 5.5 -5.5 -50
    endloop
  endfacet
  facet normal 0 0 -1
    outer loop
      vertex 7.5 -7.5 -50
      vertex 5.5 7.5 -50
      vertex 7.5 7.5 -50
    endloop
  endfacet
  facet normal 0 0 -1
    outer loop
      vertex -5.5 -5.5 -50
      vertex -7.5 7.5 -50
      vertex -5.5 7.5 -50
    endloop
  endfacet
  facet normal 0 1 0
    outer loop
      vertex -7.5 7.5 -50
      vertex -7.5 7.5 50
      vertex -5.5 7.5 -50
    endloop
  endfacet
  facet normal 0 1 0
    outer loop
      vertex -5.5 7.5 -50
      vertex -7.5 7.5 50
      vertex -5.5 7.5 50
    endloop
  endfacet
  facet normal 0 0 1
    outer loop
      vertex 5.5 -5.5 50
      vertex -7.5 -7.5 50
      vertex 7.5 -7.5 50
    endloop
  endfacet
  facet normal 0 0 1
    outer loop
      vertex -5.5 -5.5 50
      vertex -7.5 7.5 50
      vertex -7.5 -7.5 50
    endloop
  endfacet
  facet normal 0 0 1
    outer loop
      vertex 7.5 7.5 50
      vertex 5.5 7.5 50
      vertex 7.5 -7.5 50
    endloop
  endfacet
  facet normal 0 0 1
    outer loop
      vertex 5.5 7.5 50
      vertex 5.5 -5.5 50
      vertex 7.5 -7.5 50
    endloop
  endfacet
  facet normal 0 0 1
    outer loop
      vertex 5.5 -5.5 50
      vertex -5.5 -5.5 50
      vertex -7.5 -7.5 50
    endloop
  endfacet
  facet normal 0 0 1
    outer loop
      vertex -5.5 -5.5 50
      vertex -5.5 7.5 50
      vertex -7.5 7.5 50
    endloop
  endfacet
  facet normal 1 0 0
    outer loop
      vertex 7.5 -7.5 50
      vertex 7.5 -7.5 -50
      vertex 7.5 7.5 -50
    endloop
  endfacet
  facet normal 1 0 0
    outer loop
      vertex 7.5 7.5 50
      vertex 7.5 -7.5 50
      vertex 7.5 7.5 -50
    endloop
  endfacet
  facet normal 0 1 0
    outer loop
      vertex 5.5 7.5 -50
      vertex 5.5 7.5 50
      vertex 7.5 7.5 -50
    endloop
  endfacet
  facet normal 0 1 0
    outer loop
      vertex 7.5 7.5 -50
      vertex 5.5 7.5 50
      vertex 7.5 7.5 50
    endloop
  endfacet
  facet normal -1 0 0
    outer loop
      vertex 5.5 -5.5 -50
      vertex 5.5 -5.5 50
      vertex 5.5 7.5 -50
    endloop
  endfacet
  facet normal -1 0 0
    outer loop
      vertex 5.5 7.5 -50
      vertex 5.5 -5.5 50
      vertex 5.5 7.5 50
    endloop
  endfacet
  facet normal 0 1 0
    outer loop
      vertex -5.5 -5.5 -50
      vertex -5.5 -5.5 50
      vertex 5.5 -5.5 -50
    endloop
  endfacet
  facet normal 0 1 0
    outer loop
      vertex 5.5 -5.5 -50
      vertex -5.5 -5.5 50
      vertex 5.5 -5.5 50
    endloop
  endfacet
  facet normal 1 0 0
    outer loop
      vertex -5.5 -5.5 50
      vertex -5.5 -5.5 -50
      vertex -5.5 7.5 -50
    endloop
  endfacet
  facet normal 1 0 0
    outer loop
      vertex -5.5 7.5 50
      vertex -5.5 -5.5 50
      vertex -5.5 7.5 -50
    endloop
  endfacet
  facet normal -1 0 0
    outer loop
      vertex 12.5 -7.5 -50
      vertex 12.5 -7.5 50
      vertex 12.5 7.5 -50
    endloop
  endfacet
  facet normal -1 0 0
    outer loop
      vertex 12.5 7.5 -50
      vertex 12.5 -7.5 50
      vertex 12.5 7.5 50
    endloop
  endfacet
  facet normal 0 -1 0
    outer loop
      vertex 12.5 -7.5 50
      vertex 12.5 -7.5 -50
      vertex 14.5 -7.5 -50
    endloop
  endfacet
  facet normal 0 -1 0
    outer loop
      vertex 14.5 -7.5 50
      vertex 12.5 -7.5 50
      vertex 14.5 -7.5 -50
    endloop
  endfacet
  facet normal 0 0 -1
    outer loop
      vertex 12.5 -7.5 -50
      vertex 12.5 7.5 -50
      vertex 14.5 -7.5 -50
    endloop
  endfacet
  facet normal 0 0 -1
    outer loop
      vertex 14.5 1 -50
      vertex 12.5 7.5 -50
      vertex 14.5 7.5 -50
    endloop
  endfacet
  facet normal 0 0 -1
    outer loop
      vertex 14.5 -7.5 -50
      vertex 12.5 7.5 -50
      vertex 14.5 -1 -50
    endloop
  endfacet
  facet normal 0 0 -1
    outer loop
      vertex 25.5 1 -50
      vertex 25.5 7.5 -50
      vertex 27.5 7.5 -50
    endloop
  endfacet
  facet normal 0 0 -1
    outer loop
      vertex 25.5 1 -50
      vertex 27.5 7.5 -50
      vertex 27.5 -7.5 -50
    endloop
  endfacet
  facet normal 0 0 -1
    outer loop
      vertex 25.5 -1 -50
      vertex 27.5 -7.5 -50
      vertex 25.5 -7.5 -50
    endloop
  endfacet
  facet normal 0 0 -1
    outer loop
      vertex 25.5 1 -50
      vertex 27.5 -7.5 -50
      vertex 25.5 -1 -50
    endloop
  endfacet
  facet normal 0 0 -1
    outer loop
      vertex 14.5 1 -50
      vertex 25.5 1 -50
      vertex 14.5 -1 -50
    endloop
  endfacet
  facet normal 0 0 -1
    outer loop
      vertex 14.5 1 -50
      vertex 14.5 -1 -50
      vertex 12.5 7.5 -50
    endloop
  endfacet
  facet normal 0 0 -1
    outer loop
      vertex 14.5 -1 -50
      vertex 25.5 1 -50
      vertex 25.5 -1 -50
    endloop
  endfacet
  facet normal 0 1 0
    outer loop
      vertex 12.5 7.5 -50
      vertex 12.5 7.5 50
      vertex 14.5 7.5 -50
    endloop
  endfacet
  facet normal 0 1 0
    outer loop
      vertex 14.5 7.5 -50
      vertex 12.5 7.5 50
      vertex 14.5 7.5 50
    endloop
  endfacet
  facet normal 0 0 1
    outer loop
      vertex 12.5 7.5 50
      vertex 12.5 -7.5 50
      vertex 14.5 -7.5 50
    endloop
  endfacet
  facet normal 0 0 1
    outer loop
      vertex 14.5 1 50
      vertex 12.5 7.5 50
      vertex 14.5 -1 50
    endloop
  endfacet
  facet normal 0 0 1
    outer loop
      vertex 14.5 -1 50
      vertex 12.5 7.5 50
      vertex 14.5 -7.5 50
    endloop
  endfacet
  facet normal 0 0 1
    outer loop
      vertex 14.5 1 50
      vertex 14.5 7.5 50
      vertex 12.5 7.5 50
    endloop
  endfacet
  facet normal 0 0 1
    outer loop
      vertex 27.5 -7.5 50
      vertex 25.5 -1 50
      vertex 25.5 -7.5 50
    endloop
  endfacet
  facet normal 0 0 1
    outer loop
      vertex 27.5 7.5 50
      vertex 25.5 -1 50
      vertex 27.5 -7.5 50
    endloop
  endfacet
  facet normal 0 0 1
    outer loop
      vertex 27.5 7.5 50
      vertex 25.5 1 50
      vertex 25.5 -1 50
    endloop
  endfacet
  facet normal 0 0 1
    outer loop
      vertex 27.5 7.5 50
      vertex 25.5 7.5 50
      vertex 25.5 1 50
    endloop
  endfacet
  facet normal 0 0 1
    outer loop
      vertex 25.5 -1 50
      vertex 14.5 1 50
      vertex 14.5 -1 50
    endloop
  endfacet
  facet normal 0 0 1
    outer loop
      vertex 25.5 1 50
      vertex 14.5 1 50
      vertex 25.5 -1 50
    endloop
  endfacet
  facet normal 1 0 0
    outer loop
      vertex 14.5 -7.5 50
      vertex 14.5 -7.5 -50
      vertex 14.5 -1 -50
    endloop
  endfacet
  facet normal 1 0 0
    outer loop
      vertex 14.5 -1 50
      vertex 14.5 -7.5 50
      vertex 14.5 -1 -50
    endloop
  endfacet
  facet normal 0 -1 0
    outer loop
      vertex 14.5 -1 50
      vertex 14.5 -1 -50
      vertex 25.5 -1 -50
    endloop
  endfacet
  facet normal 0 -1 0
    outer loop
      vertex 25.5 -1 50
      vertex 14.5 -1 50
      vertex 25.5 -1 -50
    endloop
  endfacet
  facet normal -1 0 0
    outer loop
      vertex 25.5 -7.5 -50
      vertex 25.5 -7.5 50
      vertex 25.5 -1 -50
    endloop
  endfacet
  facet normal -1 0 0
    outer loop
      vertex 25.5 -1 -50
      vertex 25.5 -7.5 50
      vertex 25.5 -1 50
    endloop
  endfacet
  facet normal 0 -1 0
    outer loop
      vertex 25.5 -7.5 50
      vertex 25.5 -7.5 -50
      vertex 27.5 -7.5 -50
    endloop
  endfacet
  facet normal 0 -1 0
    outer loop
      vertex 27.5 -7.5 50
      vertex 25.5 -7.5 50
      vertex 27.5 -7.5 -50
    endloop
  endfacet
  facet normal 1 0 0
    outer loop
      vertex 27.5 -7.5 50
      vertex 27.5 -7.5 -50
      vertex 27.5 7.5 -50
    endloop
  endfacet
  facet normal 1 0 0
    outer loop
      vertex 27.5 7.5 50
      vertex 27.5 -7.5 50
      vertex 27.5 7.5 -50
    endloop
  endfacet
  facet normal 0 1 0
    outer loop
      vertex 25.5 7.5 -50
      vertex 25.5 7.5 50
      vertex 27.5 7.5 -50
    endloop
  endfacet
  facet normal 0 1 0
    outer loop
      vertex 27.5 7.5 -50
      vertex 25.5 7.5 50
      vertex 27.5 7.5 50
    endloop
  endfacet
  facet normal -1 0 0
    outer loop
      vertex 25.5 1 -50
      vertex 25.5 1 50
      vertex 25.5 7.5 -50
    endloop
  endfacet
  facet normal -1 0 0
    outer loop
      vertex 25.5 7.5 -50
      vertex 25.5 1 50
      vertex 25.5 7.5 50
    endloop
  endfacet
  facet normal 0 1 0
    outer loop
      vertex 14.5 1 -50
      vertex 14.5 1 50
      vertex 25.5 1 -50
    endloop
  endfacet
  facet normal 0 1 0
    outer loop
      vertex 25.5 1 -50
      vertex 14.5 1 50
      vertex 25.5 1 50
    endloop
  endfacet
  facet normal 1 0 0
    outer loop
      vertex 14.5 1 50
      vertex 14.5 1 -50
      vertex 14.5 7.5 -50
    endloop
  endfacet
  facet normal 1 0 0
    outer loop
      vertex 14.5 7.5 50
      vertex 14.5 1 50
      vertex 14.5 7.5 -50
    endloop
  endfacet
  facet normal -1 0 0
    outer loop
      vertex 32.5 -7.5 -50
      vertex 32.5 -7.5 50
      vertex 32.5 -5.5 -50
    endloop
  endfacet
  facet normal -1 0 0
    outer loop
      vertex 32.5 -5.5 -50
      vertex 32.5 -7.5 50
      vertex 32.5 -5.5 50
    endloop
  endfacet
  facet normal 0 -1 0
    outer loop
      vertex 32.5 -7.5 50
      vertex 32.5 -7.5 -50
      vertex 47.5 -7.5 -50
    endloop
  endfacet
  facet normal 0 -1 0
    outer loop
      vertex 47.5 -7.5 50
      vertex 32.5 -7.5 50
      vertex 47.5 -7.5 -50
    endloop
  endfacet
  facet normal 0 0 -1
    outer loop
      vertex 32.5 -7.5 -50
      vertex 32.5 -5.5 -50
      vertex 47.5 -7.5 -50
    endloop
  endfacet
  facet normal 0 0 -1
    outer loop
      vertex 47.5 -7.5 -50
      vertex 32.5 -5.5 -50
      vertex 39 -5.5 -50
    endloop
  endfacet
  facet normal 0 0 -1
    outer loop
      vertex 41 -5.5 -50
      vertex 39 -5.5 -50
      vertex 39 7.5 -50
    endloop
  endfacet
  facet normal 0 0 -1
    outer loop
      vertex 47.5 -7.5 -50
      vertex 39 -5.5 -50
      vertex 41 -5.5 -50
    endloop
  endfacet
  facet normal 0 0 -1
    outer loop
      vertex 47.5 -5.5 -50
      vertex 47.5 -7.5 -50
      vertex 41 -5.5 -50
    endloop
  endfacet
  facet normal 0 0 -1
    outer loop
      vertex 41 -5.5 -50
      vertex 39 7.5 -50
      vertex 41 7.5 -50
    endloop
  endfacet
  facet normal 0 1 0
    outer loop
      vertex 32.5 -5.5 -50
      vertex 32.5 -5.5 50
      vertex 39 -5.5 -50
    endloop
  endfacet
  facet normal 0 1 0
    outer loop
      vertex 39 -5.5 -50
      vertex 32.5 -5.5 50
      vertex 39 -5.5 50
    endloop
  endfacet
  facet normal 0 0 1
    outer loop
      vertex 32.5 -5.5 50
      vertex 32.5 -7.5 50
      vertex 47.5 -7.5 50
    endloop
  endfacet
  facet normal 0 0 1
    outer loop
      vertex 39 -5.5 50
      vertex 32.5 -5.5 50
      vertex 47.5 -7.5 50
    endloop
  endfacet
  facet normal 0 0 1
    outer loop
      vertex 41 -5.5 50
      vertex 39 -5.5 50
      vertex 47.5 -7.5 50
    endloop
  endfacet
  facet normal 0 0 1
    outer loop
      vertex 47.5 -5.5 50
      vertex 41 -5.5 50
      vertex 47.5 -7.5 50
    endloop
  endfacet
  facet normal 0 0 1
    outer loop
      vertex 41 7.5 50
      vertex 39 -5.5 50
      vertex 41 -5.5 50
    endloop
  endfacet
  facet normal 0 0 1
    outer loop
      vertex 39 7.5 50
      vertex 39 -5.5 50
      vertex 41 7.5 50
    endloop
  endfacet
  facet normal 1 0 0
    outer loop
      vertex 47.5 -7.5 50
      vertex 47.5 -7.5 -50
      vertex 47.5 -5.5 -50
    endloop
  endfacet
  facet normal 1 0 0
    outer loop
      vertex 47.5 -5.5 50
      vertex 47.5 -7.5 50
      vertex 47.5 -5.5 -50
    endloop
  endfacet
  facet normal 0 1 0
    outer loop
      vertex 41 -5.5 -50
      vertex 41 -5.5 50
      vertex 47.5 -5.5 -50
    endloop
  endfacet
  facet normal 0 1 0
    outer loop
      vertex 47.5 -5.5 -50
      vertex 41 -5.5 50
      vertex 47.5 -5.5 50
    endloop
  endfacet
  facet normal 1 0 0
    outer loop
      vertex 41 -5.5 50
      vertex 41 -5.5 -50
      vertex 41 7.5 -50
    endloop
  endfacet
  facet normal 1 0 0
    outer loop
      vertex 41 7.5 50
      vertex 41 -5.5 50
      vertex 41 7.5 -50
    endloop
  endfacet
  facet normal 0 1 0
    outer loop
      vertex 39 7.5 -50
      vertex 39 7.5 50
      vertex 41 7.5 -50
    endloop
  endfacet
  facet normal 0 1 0
    outer loop
      vertex 41 7.5 -50
      vertex 39 7.5 50
      vertex 41 7.5 50
    endloop
  endfacet
  facet normal -1 0 0
    outer loop
      vertex 39 -5.5 -50
      vertex 39 -5.5 50
      vertex 39 7.5 -50
    endloop
  endfacet
  facet normal -1 0 0
    outer loop
      vertex 39 7.5 -50
      vertex 39 -5.5 50
      vertex 39 7.5 50
    endloop
  endfacet
  facet normal -1 0 0
    outer loop
      vertex 52.5 -7.5 -50
      vertex 52.5 -7.5 50
      vertex 52.5 7.5 -50
    endloop
  endfacet
  facet normal -1 0 0
    outer loop
      vertex 52.5 7.5 -50
      vertex 52.5 -7.5 50
      vertex 52.5 7.5 50
    endloop
  endfacet
  facet normal 0 -1 0
    outer loop
      vertex 52.5 -7.5 50
      vertex 52.5 -7.5 -50
      vertex 67.5 -7.5 -50
    endloop
  endfacet
  facet normal 0 -1 0
    outer loop
      vertex 67.5 -7.5 50
      vertex 52.5 -7.5 50
      vertex 67.5 -7.5 -50
    endloop
  endfacet
  facet normal 0 0 -1
    outer loop
      vertex 54.5 -5.5 -50
      vertex 65.5 -5.5 -50
      vertex 67.5 -7.5 -50
    endloop
  endfacet
  facet normal 0 0 -1
    outer loop
      vertex 54.5 5.5 -50
      vertex 52.5 7.5 -50
      vertex 67.5 7.5 -50
    endloop
  endfacet
  facet normal 0 0 -1
    outer loop
      vertex 52.5 -7.5 -50
      vertex 52.5 7.5 -50
      vertex 54.5 5.5 -50
    endloop
  endfacet
  facet normal 0 0 -1
    outer loop
      vertex 65.5 5.5 -50
      vertex 54.5 5.5 -50
      vertex 67.5 7.5 -50
    endloop
  endfacet
  facet normal 0 0 -1
    outer loop
      vertex 52.5 -7.5 -50
      vertex 54.5 5.5 -50
      vertex 54.5 -5.5 -50
    endloop
  endfacet
  facet normal 0 0 -1
    outer loop
      vertex 52.5 -7.5 -50
      vertex 54.5 -5.5 -50
      vertex 67.5 -7.5 -50
    endloop
  endfacet
  facet normal 0 0 -1
    outer loop
      vertex 67.5 -7.5 -50
      vertex 65.5 -5.5 -50
      vertex 67.5 7.5 -50
    endloop
  endfacet
  facet normal 0 0 -1
    outer loop
      vertex 65.5 -5.5 -50
      vertex 65.5 5.5 -50
      vertex 67.5 7.5 -50
    endloop
  endfacet
  facet normal 0 1 0
    outer loop
      vertex 52.5 7.5 -50
      vertex 52.5 7.5 50
      vertex 67.5 7.5 -50
    endloop
  endfacet
  facet normal 0 1 0
    outer loop
      vertex 67.5 7.5 -50
      vertex 52.5 7.5 50
      vertex 67.5 7.5 50
    endloop
  endfacet
  facet normal 0 0 1
    outer loop
      vertex 54.5 -5.5 50
      vertex 52.5 -7.5 50
      vertex 67.5 -7.5 50
    endloop
  endfacet
  facet normal 0 0 1
    outer loop
      vertex 54.5 5.5 50
      vertex 52.5 7.5 50
      vertex 54.5 -5.5 50
    endloop
  endfacet
  facet normal 0 0 1
    outer loop
      vertex 65.5 -5.5 50
      vertex 54.5 -5.5 50
      vertex 67.5 -7.5 50
    endloop
  endfacet
  facet normal 0 0 1
    outer loop
      vertex 52.5 7.5 50
      vertex 52.5 -7.5 50
      vertex 54.5 -5.5 50
    endloop
  endfacet
  facet normal 0 0 1
    outer loop
      vertex 67.5 7.5 50
      vertex 52.5 7.5 50
      vertex 54.5 5.5 50
    endloop
  endfacet
  facet normal 0 0 1
    outer loop
      vertex 67.5 7.5 50
      vertex 65.5 5.5 50
      vertex 67.5 -7.5 50
    endloop
  endfacet
  facet normal 0 0 1
    outer loop
      vertex 67.5 7.5 50
      vertex 54.5 5.5 50
      vertex 65.5 5.5 50
    endloop
  endfacet
  facet normal 0 0 1
    outer loop
      vertex 65.5 5.5 50
      vertex 65.5 -5.5 50
      vertex 67.5 -7.5 50
    endloop
  endfacet
  facet normal 1 0 0
    outer loop
      vertex 67.5 -7.5 50
      vertex 67.5 -7.5 -50
      vertex 67.5 7.5 -50
    endloop
  endfacet
  facet normal 1 0 0
    outer loop
      vertex 67.5 7.5 50
      vertex 67.5 -7.5 50
      vertex 67.5 7.5 -50
    endloop
  endfacet
  facet normal 1 0 0
    outer loop
      vertex 54.5 -5.5 50
      vertex 54.5 -5.5 -50
      vertex 54.5 5.5 -50
    endloop
  endfacet
  facet normal 1 0 0
    outer loop
      vertex 54.5 5.5 50
      vertex 54.5 -5.5 50
      vertex 54.5 5.5 -50
    endloop
  endfacet
  facet normal 0 -1 0
    outer loop
      vertex 54.5 5.5 50
      vertex 54.5 5.5 -50
      vertex 65.5 5.5 -50
    endloop
  endfacet
  facet normal 0 -1 0
    outer loop
      vertex 65.5 5.5 50
      vertex 54.5 5.5 50
      vertex 65.5 5.5 -50
    endloop
  endfacet
  facet normal -1 0 0
    outer loop
      vertex 65.5 -5.5 -50
      vertex 65.5 -5.5 50
      vertex 65.5 5.5 -50
    endloop
  endfacet
  facet normal -1 0 0
    outer loop
      vertex 65.5 5.5 -50
      vertex 65.5 -5.5 50
      vertex 65.5 5.5 50
    endloop
  endfacet
  facet normal 0 1 0
    outer loop
      vertex 54.5 -5.5 -50
      vertex 54.5 -5.5 50
      vertex 65.5 -5.5 -50
    endloop
  endfacet
  facet normal 0 1 0
    outer loop
      vertex 65.5 -5.5 -50
      vertex 54.5 -5.5 50
      vertex 65.5 -5.5 50
    endloop
  endfacet
  facet normal -1 0 0
    outer loop
      vertex 72.5 -7.5 -50
      vertex 72.5 -7.5 50
      vertex 72.5 7.5 -50
    endloop
  endfacet
  facet normal -1 0 0
    outer loop
      vertex 72.5 7.5 -50
      vertex 72.5 -7.5 50
      vertex 72.5 7.5 50
    endloop
  endfacet
  facet normal 0 -1 0
    outer loop
      vertex 72.5 -7.5 50
      vertex 72.5 -7.5 -50
      vertex 87.5 -7.5 -50
    endloop
  endfacet
  facet normal 0 -1 0
    outer loop
      vertex 87.5 -7.5 50
      vertex 72.5 -7.5 50
      vertex 87.5 -7.5 -50
    endloop
  endfacet
  facet normal 0 0 -1
    outer loop
      vertex 87.5 -5.5 -50
      vertex 87.5 -7.5 -50
      vertex 74.5 -5.5 -50
    endloop
  endfacet
  facet normal 0 0 -1
    outer loop
      vertex 72.5 -7.5 -50
      vertex 72.5 7.5 -50
      vertex 74.5 -5.5 -50
    endloop
  endfacet
  facet normal 0 0 -1
    outer loop
      vertex 72.5 -7.5 -50
      vertex 74.5 -5.5 -50
      vertex 87.5 -7.5 -50
    endloop
  endfacet
  facet normal 0 0 -1
    outer loop
      vertex 74.5 -5.5 -50
      vertex 72.5 7.5 -50
      vertex 74.5 7.5 -50
    endloop
  endfacet
  facet normal 0 1 0
    outer loop
      vertex 72.5 7.5 -50
      vertex 72.5 7.5 50
      vertex 74.5 7.5 -50
    endloop
  endfacet
  facet normal 0 1 0
    outer loop
      vertex 74.5 7.5 -50
      vertex 72.5 7.5 50
      vertex 74.5 7.5 50
    endloop
  endfacet
  facet normal 0 0 1
    outer loop
      vertex 74.5 -5.5 50
      vertex 72.5 -7.5 50
      vertex 87.5 -7.5 50
    endloop
  endfacet
  facet normal 0 0 1
    outer loop
      vertex 74.5 -5.5 50
      vertex 74.5 7.5 50
      vertex 72.5 7.5 50
    endloop
  endfacet
  facet normal 0 0 1
    outer loop
      vertex 72.5 7.5 50
      vertex 72.5 -7.5 50
      vertex 74.5 -5.5 50
    endloop
  endfacet
  facet normal 0 0 1
    outer loop
      vertex 87.5 -5.5 50
      vertex 74.5 -5.5 50
      vertex 87.5 -7.5 50
    endloop
  endfacet
  facet normal 1 0 0
    outer loop
      vertex 87.5 -7.5 50
      vertex 87.5 -7.5 -50
      vertex 87.5 -5.5 -50
    endloop
  endfacet
  facet normal 1 0 0
    outer loop
      vertex 87.5 -5.5 50
      vertex 87.5 -7.5 50
      vertex 87.5 -5.5 -50
    endloop
  endfacet
  facet normal 0 1 0
    outer loop
      vertex 74.5 -5.5 -50
      vertex 74.5 -5.5 50
      vertex 87.5 -5.5 -50
    endloop
  endfacet
  facet normal 0 1 0
    outer loop
      vertex 87.5 -5.5 -50
      vertex 74.5 -5.5 50
      vertex 87.5 -5.5 50
    endloop
  endfacet
  facet normal 1 0 0
    outer loop
      vertex 74.5 -5.5 50
      vertex 74.5 -5.5 -50
      vertex 74.5 7.5 -50
    endloop
  endfacet
  facet normal 1 0 0
    outer loop
      vertex 74.5 7.5 50
      vertex 74.5 -5.5 50
      vertex 74.5 7.5 -50
    endloop
  endfacet
  facet normal 0 0 -1
    outer loop
      vertex 92.5 0 -50
      vertex 92.7556 1.94114 -50
      vertex 92.7556 -1.94114 -50
    endloop
  endfacet
  facet normal 0 0 -1
    outer loop
      vertex 92.7556 -1.94114 -50
      vertex 92.7556 1.94114 -50
      vertex 93.5048 3.75 -50
    endloop
  endfacet
  facet normal 0 0 -1
    outer loop
      vertex 92.7556 -1.94114 -50
      vertex 93.5048 3.75 -50
      vertex 94.6967 5.3033 -50
    endloop
  endfacet
  facet normal 0 0 -1
    outer loop
      vertex 92.7556 -1.94114 -50
      vertex 94.6967 5.3033 -50
      vertex 96.25 6.49519 -50
    endloop
  endfacet
  facet normal 0 0 -1
    outer loop
      vertex 95.7868 3.53533 -50
      vertex 96.25 6.49519 -50
      vertex 98.0589 7.24444 -50
    endloop
  endfacet
  facet normal 0 0 -1
    outer loop
      vertex 97.25 4.76314 -50
      vertex 98.0589 7.24444 -50
      vertex 100 7.5 -50
    endloop
  endfacet
  facet normal 0 0 -1
    outer loop
      vertex 99.0449 5.41644 -50
      vertex 100 7.5 -50
      vertex 101.941 7.24444 -50
    endloop
  endfacet
  facet normal 0 0 -1
    outer loop
      vertex 100.955 5.41644 -50
      vertex 101.941 7.24444 -50
      vertex 103.75 6.49519 -50
    endloop
  endfacet
  facet normal 0 0 -1
    outer loop
      vertex 102.75 4.76314 -50
      vertex 103.75 6.49519 -50
      vertex 105.303 5.3033 -50
    endloop
  endfacet
  facet normal 0 0 -1
    outer loop
      vertex 104.213 3.53533 -50
      vertex 105.303 5.3033 -50
      vertex 106.495 3.75 -50
    endloop
  endfacet
  facet normal 0 0 -1
    outer loop
      vertex 105.168 1.88111 -50
      vertex 106.495 3.75 -50
      vertex 107.244 1.94114 -50
    endloop
  endfacet
  facet normal 0 0 -1
    outer loop
      vertex 105.5 0 -50
      vertex 107.244 1.94114 -50
      vertex 107.5 0 -50
    endloop
  endfacet
  facet normal 0 0 -1
    outer loop
      vertex 105.168 -1.88111 -50
      vertex 107.5 0 -50
      vertex 107.244 -1.94114 -50
    endloop
  endfacet
  facet normal 0 0 -1
    outer loop
      vertex 104.213 -3.53533 -50
      vertex 106.495 -3.75 -50
      vertex 105.303 -5.3033 -50
    endloop
  endfacet
  facet normal 0 0 -1
    outer loop
      vertex 102.75 -4.76314 -50
      vertex 105.303 -5.3033 -50
      vertex 103.75 -6.49519 -50
    endloop
  endfacet
  facet normal 0 0 -1
    outer loop
      vertex 99.0449 -5.41644 -50
      vertex 103.75 -6.49519 -50
      vertex 101.941 -7.24444 -50
    endloop
  endfacet
  facet normal 0 0 -1
    outer loop
      vertex 97.25 -4.76314 -50
      vertex 101.941 -7.24444 -50
      vertex 100 -7.5 -50
    endloop
  endfacet
  facet normal 0 0 -1
    outer loop
      vertex 92.7556 -1.94114 -50
      vertex 100 -7.5 -50
      vertex 98.0589 -7.24444 -50
    endloop
  endfacet
  facet normal 0 0 -1
    outer loop
      vertex 92.7556 -1.94114 -50
      vertex 98.0589 -7.24444 -50
      vertex 96.25 -6.49519 -50
    endloop
  endfacet
  facet normal 0 0 -1
    outer loop
      vertex 92.7556 -1.94114 -50
      vertex 96.25 -6.49519 -50
      vertex 94.6967 -5.3033 -50
    endloop
  endfacet
  facet normal 0 0 -1
    outer loop
      vertex 92.7556 -1.94114 -50
      vertex 94.6967 -5.3033 -50
      vertex 93.5048 -3.75 -50
    endloop
  endfacet
  facet normal 0 0 -1
    outer loop
      vertex 94.8317 -1.88111 -50
      vertex 92.7556 -1.94114 -50
      vertex 94.5 0 -50
    endloop
  endfacet
  facet normal 0 0 -1
    outer loop
      vertex 95.7868 -3.53533 -50
      vertex 92.7556 -1.94114 -50
      vertex 94.8317 -1.88111 -50
    endloop
  endfacet
  facet normal 0 0 -1
    outer loop
      vertex 102.75 -4.76314 -50
      vertex 103.75 -6.49519 -50
      vertex 100.955 -5.41644 -50
    endloop
  endfacet
  facet normal 0 0 -1
    outer loop
      vertex 99.0449 -5.41644 -50
      vertex 101.941 -7.24444 -50
      vertex 97.25 -4.76314 -50
    endloop
  endfacet
  facet normal 0 0 -1
    outer loop
      vertex 92.7556 -1.94114 -50
      vertex 97.25 -4.76314 -50
      vertex 100 -7.5 -50
    endloop
  endfacet
  facet normal 0 0 -1
    outer loop
      vertex 100.955 -5.41644 -50
      vertex 103.75 -6.49519 -50
      vertex 99.0449 -5.41644 -50
    endloop
  endfacet
  facet normal 0 0 -1
    outer loop
      vertex 97.25 -4.76314 -50
      vertex 92.7556 -1.94114 -50
      vertex 95.7868 -3.53533 -50
    endloop
  endfacet
  facet normal 0 0 -1
    outer loop
      vertex 105.5 0 -50
      vertex 107.5 0 -50
      vertex 105.168 -1.88111 -50
    endloop
  endfacet
  facet normal 0 0 -1
    outer loop
      vertex 105.168 -1.88111 -50
      vertex 106.495 -3.75 -50
      vertex 104.213 -3.53533 -50
    endloop
  endfacet
  facet normal 0 0 -1
    outer loop
      vertex 105.168 -1.88111 -50
      vertex 107.244 -1.94114 -50
      vertex 106.495 -3.75 -50
    endloop
  endfacet
  facet normal 0 0 -1
    outer loop
      vertex 104.213 -3.53533 -50
      vertex 105.303 -5.3033 -50
      vertex 102.75 -4.76314 -50
    endloop
  endfacet
  facet normal 0 0 -1
    outer loop
      vertex 97.25 4.76314 -50
      vertex 100 7.5 -50
      vertex 99.0449 5.41644 -50
    endloop
  endfacet
  facet normal 0 0 -1
    outer loop
      vertex 99.0449 5.41644 -50
      vertex 101.941 7.24444 -50
      vertex 100.955 5.41644 -50
    endloop
  endfacet
  facet normal 0 0 -1
    outer loop
      vertex 94.8317 1.88111 -50
      vertex 96.25 6.49519 -50
      vertex 95.7868 3.53533 -50
    endloop
  endfacet
  facet normal 0 0 -1
    outer loop
      vertex 92.7556 -1.94114 -50
      vertex 96.25 6.49519 -50
      vertex 94.8317 1.88111 -50
    endloop
  endfacet
  facet normal 0 0 -1
    outer loop
      vertex 100.955 5.41644 -50
      vertex 103.75 6.49519 -50
      vertex 102.75 4.76314 -50
    endloop
  endfacet
  facet normal 0 0 -1
    outer loop
      vertex 94.5 0 -50
      vertex 92.7556 -1.94114 -50
      vertex 94.8317 1.88111 -50
    endloop
  endfacet
  facet normal 0 0 -1
    outer loop
      vertex 95.7868 3.53533 -50
      vertex 98.0589 7.24444 -50
      vertex 97.25 4.76314 -50
    endloop
  endfacet
  facet normal 0 0 -1
    outer loop
      vertex 102.75 4.76314 -50
      vertex 105.303 5.3033 -50
      vertex 104.213 3.53533 -50
    endloop
  endfacet
  facet normal 0 0 -1
    outer loop
      vertex 104.213 3.53533 -50
      vertex 106.495 3.75 -50
      vertex 105.168 1.88111 -50
    endloop
  endfacet
  facet normal 0 0 -1
    outer loop
      vertex 105.168 1.88111 -50
      vertex 107.244 1.94114 -50
      vertex 105.5 0 -50
    endloop
  endfacet
  facet normal -0.991445 0.130526 0
    outer loop
      vertex 92.5 0 -50
      vertex 92.5 0 50
      vertex 92.7556 1.94114 -50
    endloop
  endfacet
  facet normal -0.991445 0.130526 0
    outer loop
      vertex 92.7556 1.94114 -50
      vertex 92.5 0 50
      vertex 92.7556 1.94114 50
    endloop
  endfacet
  facet normal -0.991445 -0.130526 0
    outer loop
      vertex 92.5 0 -50
      vertex 92.7556 -1.94114 -50
      vertex 92.5 0 50
    endloop
  endfacet
  facet normal -0.991445 -0.130526 0
    outer loop
      vertex 92.5 0 50
      vertex 92.7556 -1.94114 -50
      vertex 92.7556 -1.94114 50
    endloop
  endfacet
  facet normal -0.92388 -0.382683 0
    outer loop
      vertex 92.7556 -1.94114 -50
      vertex 93.5048 -3.75 -50
      vertex 92.7556 -1.94114 50
    endloop
  endfacet
  facet normal -0.92388 -0.382683 0
    outer loop
      vertex 92.7556 -1.94114 50
      vertex 93.5048 -3.75 -50
      vertex 93.5048 -3.75 50
    endloop
  endfacet
  facet normal -0.793353 -0.608762 0
    outer loop
      vertex 93.5048 -3.75 -50
      vertex 94.6967 -5.3033 -50
      vertex 93.5048 -3.75 50
    endloop
  endfacet
  facet normal -0.793353 -0.608762 0
    outer loop
      vertex 93.5048 -3.75 50
      vertex 94.6967 -5.3033 -50
      vertex 94.6967 -5.3033 50
    endloop
  endfacet
  facet normal -0.608762 -0.793353 0
    outer loop
      vertex 94.6967 -5.3033 50
      vertex 94.6967 -5.3033 -50
      vertex 96.25 -6.49519 -50
    endloop
  endfacet
  facet normal -0.608762 -0.793353 0
    outer loop
      vertex 96.25 -6.49519 50
      vertex 94.6967 -5.3033 50
      vertex 96.25 -6.49519 -50
    endloop
  endfacet
  facet normal -0.382683 -0.92388 0
    outer loop
      vertex 96.25 -6.49519 50
      vertex 96.25 -6.49519 -50
      vertex 98.0589 -7.24444 -50
    endloop
  endfacet
  facet normal -0.382683 -0.92388 0
    outer loop
      vertex 98.0589 -7.24444 50
      vertex 96.25 -6.49519 50
      vertex 98.0589 -7.24444 -50
    endloop
  endfacet
  facet normal -0.130526 -0.991445 0
    outer loop
      vertex 98.0589 -7.24444 50
      vertex 98.0589 -7.24444 -50
      vertex 100 -7.5 -50
    endloop
  endfacet
  facet normal -0.130526 -0.991445 0
    outer loop
      vertex 100 -7.5 50
      vertex 98.0589 -7.24444 50
      vertex 100 -7.5 -50
    endloop
  endfacet
  facet normal 0.130526 -0.991445 0
    outer loop
      vertex 100 -7.5 50
      vertex 100 -7.5 -50
      vertex 101.941 -7.24444 -50
    endloop
  endfacet
  facet normal 0.130526 -0.991445 0
    outer loop
      vertex 101.941 -7.24444 50
      vertex 100 -7.5 50
      vertex 101.941 -7.24444 -50
    endloop
  endfacet
  facet normal 0.382683 -0.92388 0
    outer loop
      vertex 101.941 -7.24444 50
      vertex 101.941 -7.24444 -50
      vertex 103.75 -6.49519 -50
    endloop
  endfacet
  facet normal 0.382683 -0.92388 0
    outer loop
      vertex 103.75 -6.49519 50
      vertex 101.941 -7.24444 50
      vertex 103.75 -6.49519 -50
    endloop
  endfacet
  facet normal 0.608762 -0.793353 0
    outer loop
      vertex 103.75 -6.49519 50
      vertex 103.75 -6.49519 -50
      vertex 105.303 -5.3033 -50
    endloop
  endfacet
  facet normal 0.608762 -0.793353 0
    outer loop
      vertex 105.303 -5.3033 50
      vertex 103.75 -6.49519 50
      vertex 105.303 -5.3033 -50
    endloop
  endfacet
  facet normal 0.793353 -0.608762 0
    outer loop
      vertex 105.303 -5.3033 50
      vertex 105.303 -5.3033 -50
      vertex 106.495 -3.75 -50
    endloop
  endfacet
  facet normal 0.793353 -0.608762 0
    outer loop
      vertex 106.495 -3.75 50
      vertex 105.303 -5.3033 50
      vertex 106.495 -3.75 -50
    endloop
  endfacet
  facet normal 0.92388 -0.382683 0
    outer loop
      vertex 106.495 -3.75 50
      vertex 106.495 -3.75 -50
      vertex 107.244 -1.94114 -50
    endloop
  endfacet
  facet normal 0.92388 -0.382683 0
    outer loop
      vertex 107.244 -1.94114 50
      vertex 106.495 -3.75 50
      vertex 107.244 -1.94114 -50
    endloop
  endfacet
  facet normal 0.991445 -0.130526 0
    outer loop
      vertex 107.244 -1.94114 50
      vertex 107.244 -1.94114 -50
      vertex 107.5 0 -50
    endloop
  endfacet
  facet normal 0.991445 -0.130526 0
    outer loop
      vertex 107.5 0 50
      vertex 107.244 -1.94114 50
      vertex 107.5 0 -50
    endloop
  endfacet
  facet normal 0.991445 0.130526 0
    outer loop
      vertex 107.5 0 -50
      vertex 107.244 1.94114 -50
      vertex 107.244 1.94114 50
    endloop
  endfacet
  facet normal 0.991445 0.130526 0
    outer loop
      vertex 107.5 0 50
      vertex 107.5 0 -50
      vertex 107.244 1.94114 50
    endloop
  endfacet
  facet normal 0.92388 0.382683 0
    outer loop
      vertex 107.244 1.94114 -50
      vertex 106.495 3.75 -50
      vertex 106.495 3.75 50
    endloop
  endfacet
  facet normal 0.92388 0.382683 0
    outer loop
      vertex 107.244 1.94114 50
      vertex 107.244 1.94114 -50
      vertex 106.495 3.75 50
    endloop
  endfacet
  facet normal 0.793353 0.608762 0
    outer loop
      vertex 106.495 3.75 -50
      vertex 105.303 5.3033 -50
      vertex 105.303 5.3033 50
    endloop
  endfacet
  facet normal 0.793353 0.608762 0
    outer loop
      vertex 106.495 3.75 50
      vertex 106.495 3.75 -50
      vertex 105.303 5.3033 50
    endloop
  endfacet
  facet normal 0.608762 0.793353 0
    outer loop
      vertex 103.75 6.49519 -50
      vertex 103.75 6.49519 50
      vertex 105.303 5.3033 -50
    endloop
  endfacet
  facet normal 0.608762 0.793353 0
    outer loop
      vertex 105.303 5.3033 -50
      vertex 103.75 6.49519 50
      vertex 105.303 5.3033 50
    endloop
  endfacet
  facet normal 0.382683 0.92388 0
    outer loop
      vertex 101.941 7.24444 -50
      vertex 101.941 7.24444 50
      vertex 103.75 6.49519 -50
    endloop
  endfacet
  facet normal 0.382683 0.92388 0
    outer loop
      vertex 103.75 6.49519 -50
      vertex 101.941 7.24444 50
      vertex 103.75 6.49519 50
    endloop
  endfacet
  facet normal 0.130526 0.991445 0
    outer loop
      vertex 100 7.5 -50
      vertex 100 7.5 50
      vertex 101.941 7.24444 -50
    endloop
  endfacet
  facet normal 0.130526 0.991445 0
    outer loop
      vertex 101.941 7.24444 -50
      vertex 100 7.5 50
      vertex 101.941 7.24444 50
    endloop
  endfacet
  facet normal -0.130526 0.991445 0
    outer loop
      vertex 98.0589 7.24444 -50
      vertex 98.0589 7.24444 50
      vertex 100 7.5 -50
    endloop
  endfacet
  facet normal -0.130526 0.991445 0
    outer loop
      vertex 100 7.5 -50
      vertex 98.0589 7.24444 50
      vertex 100 7.5 50
    endloop
  endfacet
  facet normal -0.382683 0.92388 0
    outer loop
      vertex 96.25 6.49519 -50
      vertex 96.25 6.49519 50
      vertex 98.0589 7.24444 -50
    endloop
  endfacet
  facet normal -0.382683 0.92388 0
    outer loop
      vertex 98.0589 7.24444 -50
      vertex 96.25 6.49519 50
      vertex 98.0589 7.24444 50
    endloop
  endfacet
  facet normal -0.608762 0.793353 0
    outer loop
      vertex 94.6967 5.3033 -50
      vertex 94.6967 5.3033 50
      vertex 96.25 6.49519 -50
    endloop
  endfacet
  facet normal -0.608762 0.793353 0
    outer loop
      vertex 96.25 6.49519 -50
      vertex 94.6967 5.3033 50
      vertex 96.25 6.49519 50
    endloop
  endfacet
  facet normal -0.793353 0.608762 0
    outer loop
      vertex 93.5048 3.75 -50
      vertex 93.5048 3.75 50
      vertex 94.6967 5.3033 -50
    endloop
  endfacet
  facet normal -0.793353 0.608762 0
    outer loop
      vertex 94.6967 5.3033 -50
      vertex 93.5048 3.75 50
      vertex 94.6967 5.3033 50
    endloop
  endfacet
  facet normal -0.92388 0.382683 0
    outer loop
      vertex 92.7556 1.94114 -50
      vertex 92.7556 1.94114 50
      vertex 93.5048 3.75 -50
    endloop
  endfacet
  facet normal -0.92388 0.382683 0
    outer loop
      vertex 93.5048 3.75 -50
      vertex 92.7556 1.94114 50
      vertex 93.5048 3.75 50
    endloop
  endfacet
  facet normal 0.984808 -0.173648 0
    outer loop
      vertex 94.8317 1.88111 -50
      vertex 94.8317 1.88111 50
      vertex 94.5 0 50
    endloop
  endfacet
  facet normal 0.984808 -0.173648 0
    outer loop
      vertex 94.5 0 -50
      vertex 94.8317 1.88111 -50
      vertex 94.5 0 50
    endloop
  endfacet
  facet normal 0.984808 0.173648 0
    outer loop
      vertex 94.5 0 50
      vertex 94.8317 -1.88111 50
      vertex 94.8317 -1.88111 -50
    endloop
  endfacet
  facet normal 0.984808 0.173648 0
    outer loop
      vertex 94.5 0 -50
      vertex 94.5 0 50
      vertex 94.8317 -1.88111 -50
    endloop
  endfacet
  facet normal 0.866025 -0.5 0
    outer loop
      vertex 95.7868 3.53533 -50
      vertex 95.7868 3.53533 50
      vertex 94.8317 1.88111 50
    endloop
  endfacet
  facet normal 0.866025 -0.5 0
    outer loop
      vertex 94.8317 1.88111 -50
      vertex 95.7868 3.53533 -50
      vertex 94.8317 1.88111 50
    endloop
  endfacet
  facet normal 0.642788 -0.766044 0
    outer loop
      vertex 97.25 4.76314 -50
      vertex 97.25 4.76314 50
      vertex 95.7868 3.53533 50
    endloop
  endfacet
  facet normal 0.642788 -0.766044 0
    outer loop
      vertex 95.7868 3.53533 -50
      vertex 97.25 4.76314 -50
      vertex 95.7868 3.53533 50
    endloop
  endfacet
  facet normal 0.34202 -0.939693 0
    outer loop
      vertex 99.0449 5.41644 -50
      vertex 99.0449 5.41644 50
      vertex 97.25 4.76314 50
    endloop
  endfacet
  facet normal 0.34202 -0.939693 0
    outer loop
      vertex 97.25 4.76314 -50
      vertex 99.0449 5.41644 -50
      vertex 97.25 4.76314 50
    endloop
  endfacet
  facet normal 0 -1 0
    outer loop
      vertex 100.955 5.41644 -50
      vertex 100.955 5.41644 50
      vertex 99.0449 5.41644 50
    endloop
  endfacet
  facet normal 0 -1 0
    outer loop
      vertex 99.0449 5.41644 -50
      vertex 100.955 5.41644 -50
      vertex 99.0449 5.41644 50
    endloop
  endfacet
  facet normal -0.34202 -0.939693 0
    outer loop
      vertex 102.75 4.76314 -50
      vertex 102.75 4.76314 50
      vertex 100.955 5.41644 50
    endloop
  endfacet
  facet normal -0.34202 -0.939693 0
    outer loop
      vertex 100.955 5.41644 -50
      vertex 102.75 4.76314 -50
      vertex 100.955 5.41644 50
    endloop
  endfacet
  facet normal -0.642788 -0.766044 0
    outer loop
      vertex 104.213 3.53533 -50
      vertex 104.213 3.53533 50
      vertex 102.75 4.76314 50
    endloop
  endfacet
  facet normal -0.642788 -0.766044 0
    outer loop
      vertex 102.75 4.76314 -50
      vertex 104.213 3.53533 -50
      vertex 102.75 4.76314 50
    endloop
  endfacet
  facet normal -0.866025 -0.5 0
    outer loop
      vertex 105.168 1.88111 50
      vertex 104.213 3.53533 50
      vertex 105.168 1.88111 -50
    endloop
  endfacet
  facet normal -0.866025 -0.5 0
    outer loop
      vertex 105.168 1.88111 -50
      vertex 104.213 3.53533 50
      vertex 104.213 3.53533 -50
    endloop
  endfacet
  facet normal -0.984808 -0.173648 0
    outer loop
      vertex 105.5 0 50
      vertex 105.168 1.88111 50
      vertex 105.5 0 -50
    endloop
  endfacet
  facet normal -0.984808 -0.173648 0
    outer loop
      vertex 105.5 0 -50
      vertex 105.168 1.88111 50
      vertex 105.168 1.88111 -50
    endloop
  endfacet
  facet normal -0.984808 0.173648 0
    outer loop
      vertex 105.5 0 50
      vertex 105.5 0 -50
      vertex 105.168 -1.88111 50
    endloop
  endfacet
  facet normal -0.984808 0.173648 0
    outer loop
      vertex 105.168 -1.88111 50
      vertex 105.5 0 -50
      vertex 105.168 -1.88111 -50
    endloop
  endfacet
  facet normal -0.866025 0.5 0
    outer loop
      vertex 105.168 -1.88111 50
      vertex 105.168 -1.88111 -50
      vertex 104.213 -3.53533 50
    endloop
  endfacet
  facet normal -0.866025 0.5 0
    outer loop
      vertex 104.213 -3.53533 50
      vertex 105.168 -1.88111 -50
      vertex 104.213 -3.53533 -50
    endloop
  endfacet
  facet normal -0.642788 0.766044 0
    outer loop
      vertex 104.213 -3.53533 50
      vertex 104.213 -3.53533 -50
      vertex 102.75 -4.76314 50
    endloop
  endfacet
  facet normal -0.642788 0.766044 0
    outer loop
      vertex 102.75 -4.76314 50
      vertex 104.213 -3.53533 -50
      vertex 102.75 -4.76314 -50
    endloop
  endfacet
  facet normal -0.34202 0.939693 0
    outer loop
      vertex 102.75 -4.76314 50
      vertex 102.75 -4.76314 -50
      vertex 100.955 -5.41644 50
    endloop
  endfacet
  facet normal -0.34202 0.939693 0
    outer loop
      vertex 100.955 -5.41644 50
      vertex 102.75 -4.76314 -50
      vertex 100.955 -5.41644 -50
    endloop
  endfacet
  facet normal 0 1 0
    outer loop
      vertex 100.955 -5.41644 50
      vertex 100.955 -5.41644 -50
      vertex 99.0449 -5.41644 50
    endloop
  endfacet
  facet normal 0 1 0
    outer loop
      vertex 99.0449 -5.41644 50
      vertex 100.955 -5.41644 -50
      vertex 99.0449 -5.41644 -50
    endloop
  endfacet
  facet normal 0.34202 0.939693 0
    outer loop
      vertex 99.0449 -5.41644 50
      vertex 99.0449 -5.41644 -50
      vertex 97.25 -4.76314 50
    endloop
  endfacet
  facet normal 0.34202 0.939693 0
    outer loop
      vertex 97.25 -4.76314 50
      vertex 99.0449 -5.41644 -50
      vertex 97.25 -4.76314 -50
    endloop
  endfacet
  facet normal 0.642788 0.766044 0
    outer loop
      vertex 97.25 -4.76314 50
      vertex 97.25 -4.76314 -50
      vertex 95.7868 -3.53533 50
    endloop
  endfacet
  facet normal 0.642788 0.766044 0
    outer loop
      vertex 95.7868 -3.53533 50
      vertex 97.25 -4.76314 -50
      vertex 95.7868 -3.53533 -50
    endloop
  endfacet
  facet normal 0.866025 0.5 0
    outer loop
      vertex 94.8317 -1.88111 50
      vertex 95.7868 -3.53533 50
      vertex 95.7868 -3.53533 -50
    endloop
  endfacet
  facet normal 0.866025 0.5 0
    outer loop
      vertex 94.8317 -1.88111 -50
      vertex 94.8317 -1.88111 50
      vertex 95.7868 -3.53533 -50
    endloop
  endfacet
  facet normal 0 0 1
    outer loop
      vertex 92.7556 1.94114 50
      vertex 92.5 0 50
      vertex 92.7556 -1.94114 50
    endloop
  endfacet
  facet normal 0 0 1
    outer loop
      vertex 94.6967 -5.3033 50
      vertex 92.7556 1.94114 50
      vertex 93.5048 -3.75 50
    endloop
  endfacet
  facet normal 0 0 1
    outer loop
      vertex 93.5048 -3.75 50
      vertex 92.7556 1.94114 50
      vertex 92.7556 -1.94114 50
    endloop
  endfacet
  facet normal 0 0 1
    outer loop
      vertex 96.25 -6.49519 50
      vertex 92.7556 1.94114 50
      vertex 94.6967 -5.3033 50
    endloop
  endfacet
  facet normal 0 0 1
    outer loop
      vertex 94.8317 -1.88111 50
      vertex 92.7556 1.94114 50
      vertex 96.25 -6.49519 50
    endloop
  endfacet
  facet normal 0 0 1
    outer loop
      vertex 105.168 1.88111 50
      vertex 105.5 0 50
      vertex 107.5 0 50
    endloop
  endfacet
  facet normal 0 0 1
    outer loop
      vertex 104.213 3.53533 50
      vertex 107.244 1.94114 50
      vertex 106.495 3.75 50
    endloop
  endfacet
  facet normal 0 0 1
    outer loop
      vertex 102.75 4.76314 50
      vertex 104.213 3.53533 50
      vertex 105.303 5.3033 50
    endloop
  endfacet
  facet normal 0 0 1
    outer loop
      vertex 100.955 5.41644 50
      vertex 102.75 4.76314 50
      vertex 103.75 6.49519 50
    endloop
  endfacet
  facet normal 0 0 1
    outer loop
      vertex 95.7868 3.53533 50
      vertex 97.25 4.76314 50
      vertex 92.7556 1.94114 50
    endloop
  endfacet
  facet normal 0 0 1
    outer loop
      vertex 98.0589 7.24444 50
      vertex 92.7556 1.94114 50
      vertex 100 7.5 50
    endloop
  endfacet
  facet normal 0 0 1
    outer loop
      vertex 96.25 6.49519 50
      vertex 92.7556 1.94114 50
      vertex 98.0589 7.24444 50
    endloop
  endfacet
  facet normal 0 0 1
    outer loop
      vertex 94.6967 5.3033 50
      vertex 92.7556 1.94114 50
      vertex 96.25 6.49519 50
    endloop
  endfacet
  facet normal 0 0 1
    outer loop
      vertex 93.5048 3.75 50
      vertex 92.7556 1.94114 50
      vertex 94.6967 5.3033 50
    endloop
  endfacet
  facet normal 0 0 1
    outer loop
      vertex 95.7868 -3.53533 50
      vertex 94.8317 -1.88111 50
      vertex 96.25 -6.49519 50
    endloop
  endfacet
  facet normal 0 0 1
    outer loop
      vertex 104.213 -3.53533 50
      vertex 102.75 -4.76314 50
      vertex 105.303 -5.3033 50
    endloop
  endfacet
  facet normal 0 0 1
    outer loop
      vertex 105.5 0 50
      vertex 105.168 -1.88111 50
      vertex 107.244 -1.94114 50
    endloop
  endfacet
  facet normal 0 0 1
    outer loop
      vertex 97.25 4.76314 50
      vertex 99.0449 5.41644 50
      vertex 101.941 7.24444 50
    endloop
  endfacet
  facet normal 0 0 1
    outer loop
      vertex 100 7.5 50
      vertex 97.25 4.76314 50
      vertex 101.941 7.24444 50
    endloop
  endfacet
  facet normal 0 0 1
    outer loop
      vertex 100 7.5 50
      vertex 92.7556 1.94114 50
      vertex 97.25 4.76314 50
    endloop
  endfacet
  facet normal 0 0 1
    outer loop
      vertex 101.941 7.24444 50
      vertex 99.0449 5.41644 50
      vertex 103.75 6.49519 50
    endloop
  endfacet
  facet normal 0 0 1
    outer loop
      vertex 99.0449 5.41644 50
      vertex 100.955 5.41644 50
      vertex 103.75 6.49519 50
    endloop
  endfacet
  facet normal 0 0 1
    outer loop
      vertex 103.75 6.49519 50
      vertex 102.75 4.76314 50
      vertex 105.303 5.3033 50
    endloop
  endfacet
  facet normal 0 0 1
    outer loop
      vertex 104.213 3.53533 50
      vertex 105.168 1.88111 50
      vertex 107.244 1.94114 50
    endloop
  endfacet
  facet normal 0 0 1
    outer loop
      vertex 105.303 5.3033 50
      vertex 104.213 3.53533 50
      vertex 106.495 3.75 50
    endloop
  endfacet
  facet normal 0 0 1
    outer loop
      vertex 107.244 1.94114 50
      vertex 105.168 1.88111 50
      vertex 107.5 0 50
    endloop
  endfacet
  facet normal 0 0 1
    outer loop
      vertex 107.5 0 50
      vertex 105.5 0 50
      vertex 107.244 -1.94114 50
    endloop
  endfacet
  facet normal 0 0 1
    outer loop
      vertex 107.244 -1.94114 50
      vertex 105.168 -1.88111 50
      vertex 106.495 -3.75 50
    endloop
  endfacet
  facet normal 0 0 1
    outer loop
      vertex 106.495 -3.75 50
      vertex 104.213 -3.53533 50
      vertex 105.303 -5.3033 50
    endloop
  endfacet
  facet normal 0 0 1
    outer loop
      vertex 100.955 -5.41644 50
      vertex 99.0449 -5.41644 50
      vertex 101.941 -7.24444 50
    endloop
  endfacet
  facet normal 0 0 1
    outer loop
      vertex 105.303 -5.3033 50
      vertex 102.75 -4.76314 50
      vertex 103.75 -6.49519 50
    endloop
  endfacet
  facet normal 0 0 1
    outer loop
      vertex 94.8317 1.88111 50
      vertex 95.7868 3.53533 50
      vertex 92.7556 1.94114 50
    endloop
  endfacet
  facet normal 0 0 1
    outer loop
      vertex 103.75 -6.49519 50
      vertex 100.955 -5.41644 50
      vertex 101.941 -7.24444 50
    endloop
  endfacet
  facet normal 0 0 1
    outer loop
      vertex 101.941 -7.24444 50
      vertex 99.0449 -5.41644 50
      vertex 100 -7.5 50
    endloop
  endfacet
  facet normal 0 0 1
    outer loop
      vertex 100 -7.5 50
      vertex 97.25 -4.76314 50
      vertex 98.0589 -7.24444 50
    endloop
  endfacet
  facet normal 0 0 1
    outer loop
      vertex 105.168 -1.88111 50
      vertex 104.213 -3.53533 50
      vertex 106.495 -3.75 50
    endloop
  endfacet
  facet normal 0 0 1
    outer loop
      vertex 98.0589 -7.24444 50
      vertex 95.7868 -3.53533 50
      vertex 96.25 -6.49519 50
    endloop
  endfacet
  facet normal 0 0 1
    outer loop
      vertex 94.8317 -1.88111 50
      vertex 94.5 0 50
      vertex 92.7556 1.94114 50
    endloop
  endfacet
  facet normal 0 0 1
    outer loop
      vertex 102.75 -4.76314 50
      vertex 100.955 -5.41644 50
      vertex 103.75 -6.49519 50
    endloop
  endfacet
  facet normal 0 0 1
    outer loop
      vertex 97.25 -4.76314 50
      vertex 95.7868 -3.53533 50
      vertex 98.0589 -7.24444 50
    endloop
  endfacet
  facet normal 0 0 1
    outer loop
      vertex 99.0449 -5.41644 50
      vertex 97.25 -4.76314 50
      vertex 100 -7.5 50
    endloop
  endfacet
  facet normal 0 0 1
    outer loop
      vertex 94.5 0 50
      vertex 94.8317 1.88111 50
      vertex 92.7556 1.94114 50
    endloop
  endfacet
endsolid OpenSCAD_Model
