<?xml version="1.0" encoding="UTF-8" standalone="no"?>
<!-- Created with Inkscape (http://www.inkscape.org/) -->

<svg
   xmlns:dc="http://purl.org/dc/elements/1.1/"
   xmlns:cc="http://creativecommons.org/ns#"
   xmlns:rdf="http://www.w3.org/1999/02/22-rdf-syntax-ns#"
   xmlns:svg="http://www.w3.org/2000/svg"
   xmlns="http://www.w3.org/2000/svg"
   xmlns:xlink="http://www.w3.org/1999/xlink"
   xmlns:sodipodi="http://sodipodi.sourceforge.net/DTD/sodipodi-0.dtd"
   xmlns:inkscape="http://www.inkscape.org/namespaces/inkscape"
   width="297mm"
   height="210mm"
   viewBox="0 0 297 210"
   version="1.1"
   id="svg8"
   inkscape:version="0.92.2 (5c3e80d, 2017-08-06)"
   sodipodi:docname="simple.svg">
  <defs
     id="defs2">
    <marker
       inkscape:stockid="Arrow1Lstart"
       orient="auto"
       refY="0.0"
       refX="0.0"
       id="marker9979"
       style="overflow:visible"
       inkscape:isstock="true">
      <path
         id="path9977"
         d="M 0.0,0.0 L 5.0,-5.0 L -12.5,0.0 L 5.0,5.0 L 0.0,0.0 z "
         style="fill-rule:evenodd;stroke:none;stroke-width:1pt;stroke-opacity:1;fill:#565656;fill-opacity:1"
         transform="scale(0.8) translate(12.5,0)" />
    </marker>
    <clipPath
       clipPathUnits="userSpaceOnUse"
       id="clipPath4673">
      <use
         x="0"
         y="0"
         xlink:href="#g4669"
         id="use4675"
         width="100%"
         height="100%" />
    </clipPath>
  </defs>
  <sodipodi:namedview
     id="base"
     pagecolor="#ffffff"
     bordercolor="#666666"
     borderopacity="1.0"
     inkscape:pageopacity="0.0"
     inkscape:pageshadow="2"
     inkscape:zoom="0.7"
     inkscape:cx="636.01887"
     inkscape:cy="475.29761"
     inkscape:document-units="mm"
     inkscape:current-layer="flowRoot4514-2-2-9-4-4"
     showgrid="false"
     inkscape:snap-grids="true"
     inkscape:window-width="1600"
     inkscape:window-height="837"
     inkscape:window-x="-8"
     inkscape:window-y="-8"
     inkscape:window-maximized="1" />
  <metadata
     id="metadata5">
    <rdf:RDF>
      <cc:Work
         rdf:about="">
        <dc:format>image/svg+xml</dc:format>
        <dc:type
           rdf:resource="http://purl.org/dc/dcmitype/StillImage" />
        <dc:title></dc:title>
      </cc:Work>
    </rdf:RDF>
  </metadata>
  <g
     inkscape:label="Calque 1"
     inkscape:groupmode="layer"
     id="layer1"
     transform="translate(0,-87)">
    <rect
       style="opacity:1;fill:none;stroke:#000000;stroke-width:0.1;stroke-miterlimit:4;stroke-dasharray:none;stroke-opacity:1"
       id="rect3699"
       width="53.98"
       height="86.199997"
       x="208.45387"
       y="-61.909824" />
    <flowRoot
       xml:space="preserve"
       id="flowRoot4506"
       style="font-style:normal;font-variant:normal;font-weight:normal;font-stretch:normal;font-size:10.66666698px;line-height:1.25;font-family:'Ink Free';-inkscape-font-specification:'Ink Free';letter-spacing:0px;word-spacing:0px;fill:#000000;fill-opacity:1;stroke:none"
       transform="scale(0.26458333)"><flowRegion
         id="flowRegion4508"><rect
           id="rect4510"
           width="156.42857"
           height="257.14285"
           x="63.57143"
           y="64.662544" /></flowRegion><flowPara
         id="flowPara4512"
         style="font-size:37.33333206px">1234567890</flowPara></flowRoot>    <flowRoot
       xml:space="preserve"
       id="flowRoot4514"
       style="font-style:normal;font-variant:normal;font-weight:normal;font-stretch:normal;font-size:10.66666698px;line-height:1.25;font-family:'Ink Free';-inkscape-font-specification:'Ink Free';letter-spacing:0px;word-spacing:0px;fill:#000000;fill-opacity:1;stroke:none"
       transform="matrix(4.9094407,0,0,6.5275919,-1029.8907,-941.5428)"><flowRegion
         id="flowRegion4516"><rect
           id="rect4518"
           width="162.14285"
           height="249.28572"
           x="283.57144"
           y="125.37682" /></flowRegion><flowPara
         id="flowPara4520">1234567890</flowPara><flowPara
         id="flowPara4522" /></flowRoot>    <flowRoot
       xml:space="preserve"
       id="flowRoot4514-2"
       style="font-style:normal;font-variant:normal;font-weight:normal;font-stretch:normal;font-size:10.66666698px;line-height:1.25;font-family:'HP Simplified';-inkscape-font-specification:'HP Simplified';letter-spacing:0px;word-spacing:0px;fill:#000000;fill-opacity:1;stroke:none"
       transform="matrix(4.9094406,0,0,6.5275918,-1019.2541,-872.98472)"><flowRegion
         id="flowRegion4516-1"
         style="font-style:normal;font-variant:normal;font-weight:normal;font-stretch:normal;font-family:'HP Simplified';-inkscape-font-specification:'HP Simplified'"><rect
           id="rect4518-6"
           width="162.14285"
           height="249.28572"
           x="283.57144"
           y="125.37682"
           style="font-style:normal;font-variant:normal;font-weight:normal;font-stretch:normal;font-family:'HP Simplified';-inkscape-font-specification:'HP Simplified'" /></flowRegion><flowPara
         id="flowPara4520-0">1234567890</flowPara><flowPara
         id="flowPara4522-7" /></flowRoot>    <flowRoot
       xml:space="preserve"
       id="flowRoot4514-2-2"
       style="font-style:normal;font-variant:normal;font-weight:normal;font-stretch:normal;font-size:10.66666698px;line-height:1.25;font-family:'Gentium Book Basic';-inkscape-font-specification:'Gentium Book Basic';letter-spacing:0px;word-spacing:0px;fill:#000000;fill-opacity:1;stroke:none"
       transform="matrix(6.3782304,0,0,7.5302961,-1436.8842,-934.18974)"><flowRegion
         id="flowRegion4516-1-6"
         style="font-style:normal;font-variant:normal;font-weight:normal;font-stretch:normal;font-family:'Gentium Book Basic';-inkscape-font-specification:'Gentium Book Basic'"><rect
           id="rect4518-6-6"
           width="162.14285"
           height="249.28572"
           x="283.57144"
           y="125.37682"
           style="font-style:normal;font-variant:normal;font-weight:normal;font-stretch:normal;font-family:'Gentium Book Basic';-inkscape-font-specification:'Gentium Book Basic'" /></flowRegion><flowPara
         id="flowPara4520-0-5">1234567890</flowPara><flowPara
         id="flowPara4522-7-6" /></flowRoot>    <g
       id="g4671"
       clip-path="url(#clipPath4673)"
       transform="translate(3.023809,3.779762)">
      <g
         inkscape:label="Clip"
         id="g4669">
        <g
           id="flowRoot4514-2-2-9"
           style="font-style:normal;font-variant:normal;font-weight:normal;font-stretch:normal;font-size:10.66666698px;line-height:1.25;font-family:Verdana;-inkscape-font-specification:Verdana;letter-spacing:0px;word-spacing:0px;fill:#000000;fill-opacity:1;stroke:none"
           transform="matrix(6.3782305,0,0,7.5302962,-1770.458,-850.66432)"
           aria-label="12345
67890
" />
      </g>
    </g>
    <flowRoot
       xml:space="preserve"
       id="flowRoot4514-2-2-9-4"
       style="font-style:normal;font-variant:normal;font-weight:normal;font-stretch:normal;font-size:10.66666698px;line-height:1.25;font-family:Verdana;-inkscape-font-specification:Verdana;letter-spacing:0px;word-spacing:0px;fill:#000000;fill-opacity:1;stroke:none"
       transform="matrix(6.3782305,0,0,7.5302962,-1466.4387,-837.47408)"><flowRegion
         id="flowRegion4516-1-6-2-5"
         style="font-style:normal;font-variant:normal;font-weight:normal;font-stretch:normal;font-family:Verdana;-inkscape-font-specification:Verdana"><rect
           id="rect4518-6-6-6-3"
           width="162.14285"
           height="249.28572"
           x="283.57144"
           y="125.37682"
           style="font-style:normal;font-variant:normal;font-weight:normal;font-stretch:normal;font-family:Verdana;-inkscape-font-specification:Verdana" /></flowRegion><flowPara
         id="flowPara4520-0-5-7-5">12345</flowPara><flowPara
         id="flowPara4605-5">67890</flowPara><flowPara
         id="flowPara4522-7-6-3-1" /></flowRoot>    <g
       aria-label="12345
67890
"
       transform="matrix(6.3782305,0,0,7.5302962,-1776.3792,-850.32527)"
       style="font-style:normal;font-variant:normal;font-weight:normal;font-stretch:normal;font-size:10.66666698px;line-height:1.25;font-family:Verdana;-inkscape-font-specification:Verdana;letter-spacing:0px;word-spacing:0px;fill:#000000;fill-opacity:1;stroke:none"
       id="flowRoot4514-2-2-9-4-4">
      <path
         d="m 289.2181,135.10848 h -4.19792 v -0.79167 h 1.61459 v -5.19792 h -1.61459 v -0.70833 q 0.32813,0 0.70313,-0.0521 0.375,-0.0573 0.56771,-0.16146 0.23958,-0.13021 0.375,-0.32813 0.14062,-0.20312 0.16145,-0.54166 h 0.8073 v 6.98958 h 1.58333 z"
         id="path10025"
         inkscape:connector-curvature="0"
         style="fill:#ffffff;fill-opacity:1;stroke:#000000;stroke-opacity:1;stroke-width:0.14862131;stroke-miterlimit:4;stroke-dasharray:none" />
      <path
         d="m 296.45247,135.10848 h -5.25 v -1.08854 q 0.54688,-0.46875 1.09375,-0.9375 0.55209,-0.46875 1.02605,-0.9323 1,-0.96875 1.36979,-1.53646 0.36979,-0.57291 0.36979,-1.23437 0,-0.60417 -0.40104,-0.94271 -0.39584,-0.34375 -1.10938,-0.34375 -0.47396,0 -1.02604,0.16667 -0.55208,0.16666 -1.07812,0.51041 h -0.0521 v -1.09375 q 0.36979,-0.18229 0.98438,-0.33333 0.61979,-0.15104 1.19791,-0.15104 1.19271,0 1.8698,0.57812 0.67708,0.57292 0.67708,1.5573 0,0.4427 -0.11458,0.82812 -0.10938,0.38021 -0.32813,0.72396 -0.20312,0.32292 -0.47917,0.63542 -0.27083,0.3125 -0.66145,0.69271 -0.5573,0.54687 -1.15105,1.0625 -0.59375,0.51041 -1.10937,0.94791 h 4.17187 z"
         id="path10027"
         inkscape:connector-curvature="0"
         style="fill:none;fill-opacity:1;stroke:#000000;stroke-opacity:1;stroke-width:0.14429254;stroke-miterlimit:4;stroke-dasharray:none" />
      <path
         d="m 302.56185,131.3741 q 0.25,0.22396 0.41146,0.5625 0.16146,0.33854 0.16146,0.875 0,0.53125 -0.19271,0.97396 -0.19271,0.44271 -0.54167,0.77083 -0.39062,0.36459 -0.92187,0.54167 -0.52605,0.17188 -1.15625,0.17188 -0.64584,0 -1.27084,-0.15625 -0.625,-0.15105 -1.02604,-0.33334 v -1.08854 h 0.0781 q 0.4427,0.29167 1.04166,0.48438 0.59896,0.1927 1.15625,0.1927 0.32813,0 0.69792,-0.10937 0.36979,-0.10938 0.59896,-0.32292 0.23958,-0.22916 0.35416,-0.50521 0.1198,-0.27604 0.1198,-0.69791 0,-0.41667 -0.13542,-0.6875 -0.13021,-0.27604 -0.36458,-0.43229 -0.23438,-0.16146 -0.56771,-0.21875 -0.33334,-0.0625 -0.71875,-0.0625 h -0.46875 v -0.86459 h 0.36458 q 0.79167,0 1.26042,-0.32812 0.47396,-0.33334 0.47396,-0.96875 0,-0.28125 -0.1198,-0.48959 -0.11979,-0.21354 -0.33333,-0.34896 -0.22396,-0.13541 -0.47917,-0.1875 -0.2552,-0.0521 -0.57812,-0.0521 -0.49479,0 -1.05208,0.17708 -0.5573,0.17709 -1.05209,0.5 h -0.0521 v -1.08854 q 0.36979,-0.18229 0.98437,-0.33333 0.6198,-0.15625 1.19792,-0.15625 0.56771,0 1,0.10417 0.43229,0.10416 0.78125,0.33333 0.375,0.25 0.56771,0.60417 0.19271,0.35416 0.19271,0.82812 0,0.64583 -0.45834,1.13021 -0.45312,0.47917 -1.07291,0.60417 v 0.0729 q 0.25,0.0417 0.57291,0.17709 0.32292,0.13021 0.54688,0.32812 z"
         id="path10029"
         inkscape:connector-curvature="0"
         style="fill:none;fill-opacity:1;stroke-width:0.14429254;stroke-miterlimit:4;stroke-dasharray:none;stroke:#000000;stroke-opacity:1" />
      <path
         d="m 310.21289,132.92619 h -1.15104 v 2.18229 h -1 v -2.18229 h -3.71354 v -1.19792 l 3.75521,-4.375 h 0.95833 v 4.73958 h 1.15104 z m -2.15104,-0.83334 v -3.5 l -3.00521,3.5 z"
         id="path10031"
         inkscape:connector-curvature="0"
         style="fill:none;fill-opacity:1;stroke-width:0.14429254;stroke-miterlimit:4;stroke-dasharray:none;stroke:#000000;stroke-opacity:1" />
      <path
         d="m 316.76498,132.64494 q 0,0.54166 -0.19792,1.03645 -0.19792,0.4948 -0.54167,0.83334 -0.375,0.36458 -0.89583,0.5625 -0.51563,0.19271 -1.19792,0.19271 -0.63541,0 -1.22396,-0.13542 -0.58854,-0.13021 -0.99479,-0.31771 v -1.09896 h 0.0729 q 0.42708,0.27084 1,0.46354 0.57292,0.1875 1.125,0.1875 0.36979,0 0.71354,-0.10416 0.34896,-0.10417 0.61979,-0.36459 0.22917,-0.22395 0.34375,-0.53645 0.11979,-0.3125 0.11979,-0.72396 0,-0.40104 -0.14062,-0.67709 -0.13542,-0.27604 -0.38021,-0.4427 -0.27083,-0.19792 -0.66146,-0.27605 -0.38541,-0.0833 -0.86458,-0.0833 -0.45833,0 -0.88542,0.0625 -0.42187,0.0625 -0.72916,0.125 v -3.99479 h 4.66666 v 0.91146 h -3.66146 v 2.0625 q 0.22396,-0.0208 0.45834,-0.0312 0.23437,-0.0104 0.40625,-0.0104 0.63021,0 1.10416,0.10937 0.47396,0.10417 0.8698,0.375 0.41666,0.28646 0.64583,0.73959 0.22917,0.45312 0.22917,1.13542 z"
         id="path10033"
         inkscape:connector-curvature="0"
         style="fill:none;fill-opacity:1;stroke-width:0.14429254;stroke-miterlimit:4;stroke-dasharray:none;stroke:#000000;stroke-opacity:1" />
      <path
         d="m 289.77539,145.92618 q 0,1.18229 -0.78125,1.93229 -0.77604,0.74479 -1.90625,0.74479 -0.57292,0 -1.04167,-0.17708 -0.46875,-0.17708 -0.82812,-0.52604 -0.44792,-0.43229 -0.69271,-1.14584 -0.23958,-0.71354 -0.23958,-1.71875 0,-1.03125 0.21875,-1.82812 0.22396,-0.79688 0.70833,-1.41667 0.45833,-0.58854 1.18229,-0.91666 0.72396,-0.33334 1.6875,-0.33334 0.30729,0 0.51563,0.026 0.20833,0.026 0.42187,0.0937 v 0.9948 h -0.0521 q -0.14583,-0.0781 -0.44271,-0.14584 -0.29167,-0.0729 -0.59896,-0.0729 -1.11979,0 -1.78646,0.70312 -0.66666,0.69792 -0.77604,1.89063 0.4375,-0.26563 0.85938,-0.40105 0.42708,-0.14062 0.98437,-0.14062 0.49479,0 0.86979,0.0937 0.38021,0.0885 0.77605,0.36458 0.45833,0.31771 0.6875,0.80209 0.23437,0.48437 0.23437,1.17708 z m -1.05729,0.0417 q 0,-0.48438 -0.14583,-0.80209 -0.14063,-0.31771 -0.46875,-0.55208 -0.23959,-0.16667 -0.53125,-0.21875 -0.29167,-0.0521 -0.60938,-0.0521 -0.44271,0 -0.82292,0.10416 -0.3802,0.10417 -0.78125,0.32292 -0.0104,0.11458 -0.0156,0.22396 -0.005,0.10416 -0.005,0.26562 0,0.82292 0.16667,1.30209 0.17187,0.47395 0.46875,0.75 0.23958,0.22916 0.51562,0.33854 0.28125,0.10417 0.60938,0.10417 0.75521,0 1.1875,-0.45834 0.43229,-0.46354 0.43229,-1.32812 z"
         id="path10035"
         inkscape:connector-curvature="0"
         style="fill:none;fill-opacity:1;stroke-width:0.14429254;stroke-miterlimit:4;stroke-dasharray:none;stroke:#000000;stroke-opacity:1" />
      <path
         d="m 296.47331,141.84805 -3.51042,6.59376 h -1.11458 l 3.73437,-6.84376 h -4.41666 v -0.91145 h 5.30729 z"
         id="path10037"
         inkscape:connector-curvature="0"
         style="fill:none;fill-opacity:1;stroke-width:0.14429254;stroke-miterlimit:4;stroke-dasharray:none;stroke:#000000;stroke-opacity:1" />
      <path
         d="m 303.30143,146.28035 q 0,1.00521 -0.78646,1.67187 -0.78125,0.66667 -1.96875,0.66667 -1.26041,0 -2.01041,-0.65104 -0.74479,-0.65104 -0.74479,-1.66667 0,-0.64583 0.375,-1.16667 0.375,-0.52604 1.05729,-0.83333 v -0.0312 q -0.625,-0.33333 -0.92709,-0.72917 -0.29687,-0.39583 -0.29687,-0.98958 0,-0.875 0.71875,-1.45833 0.71875,-0.58334 1.82812,-0.58334 1.16146,0 1.85417,0.55729 0.69271,0.5573 0.69271,1.41667 0,0.52604 -0.32813,1.03646 -0.32812,0.50521 -0.96354,0.79167 v 0.0312 q 0.72917,0.3125 1.11459,0.77083 0.38541,0.45833 0.38541,1.16667 z m -1.23437,-3.78646 q 0,-0.55729 -0.43229,-0.88542 -0.42709,-0.33333 -1.09375,-0.33333 -0.65625,0 -1.07813,0.3125 -0.41667,0.3125 -0.41667,0.84375 0,0.375 0.20834,0.65104 0.21354,0.27083 0.64062,0.48437 0.19271,0.0937 0.55209,0.2448 0.36458,0.15104 0.70833,0.25 0.51562,-0.34375 0.71354,-0.71355 0.19792,-0.36979 0.19792,-0.85416 z m 0.16146,3.88541 q 0,-0.47916 -0.21355,-0.76562 -0.20833,-0.29167 -0.82291,-0.58333 -0.24479,-0.11459 -0.53646,-0.21355 -0.29167,-0.099 -0.77604,-0.27604 -0.46875,0.25521 -0.75521,0.69271 -0.28125,0.4375 -0.28125,0.98958 0,0.70313 0.48437,1.16146 0.48438,0.45834 1.22917,0.45834 0.76042,0 1.21354,-0.39063 0.45834,-0.39062 0.45834,-1.07292 z"
         id="path10039"
         inkscape:connector-curvature="0"
         style="fill:none;fill-opacity:1;stroke-width:0.14429254;stroke-miterlimit:4;stroke-dasharray:none;stroke:#000000;stroke-opacity:1" />
      <path
         d="m 310.02539,144.09805 q 0,1.01563 -0.23437,1.84375 -0.22917,0.82813 -0.69792,1.41146 -0.47396,0.59375 -1.1875,0.91667 -0.71354,0.32292 -1.67708,0.32292 -0.27084,0 -0.51042,-0.0312 -0.23958,-0.026 -0.42708,-0.0885 v -0.9948 h 0.0521 q 0.15104,0.0781 0.42708,0.15105 0.27604,0.0677 0.61459,0.0677 1.15104,0 1.80208,-0.6875 0.65625,-0.69271 0.76042,-1.90625 -0.48438,0.29167 -0.91146,0.41667 -0.42709,0.125 -0.93229,0.125 -0.47917,0 -0.8698,-0.0937 -0.38541,-0.0937 -0.77604,-0.36458 -0.45833,-0.31771 -0.69271,-0.8073 -0.22916,-0.48958 -0.22916,-1.17187 0,-1.1875 0.78125,-1.93229 0.78125,-0.74479 1.90625,-0.74479 0.5625,0 1.04166,0.17708 0.47917,0.17187 0.83855,0.52083 0.4427,0.43229 0.68229,1.11459 0.23958,0.67708 0.23958,1.7552 z m -1.05208,-0.22395 q 0,-0.8073 -0.16667,-1.29688 -0.16667,-0.48958 -0.45833,-0.76042 -0.24479,-0.23437 -0.52604,-0.33333 -0.28125,-0.10417 -0.60938,-0.10417 -0.75,0 -1.1875,0.46875 -0.43229,0.46875 -0.43229,1.31771 0,0.49479 0.14062,0.80729 0.14063,0.3125 0.47396,0.54688 0.23438,0.16146 0.51563,0.21875 0.28125,0.0521 0.625,0.0521 0.40625,0 0.82291,-0.10937 0.41667,-0.10938 0.78125,-0.31771 0.005,-0.10938 0.0104,-0.21354 0.0104,-0.10938 0.0104,-0.27604 z"
         id="path10041"
         inkscape:connector-curvature="0"
         style="fill:none;fill-opacity:1;stroke-width:0.14429254;stroke-miterlimit:4;stroke-dasharray:none;stroke:#000000;stroke-opacity:1" />
      <path
         d="m 316.81706,144.5616 q 0,2.08854 -0.65625,3.06771 -0.65104,0.97395 -2.02604,0.97395 -1.39584,0 -2.04167,-0.98958 -0.64062,-0.98958 -0.64062,-3.04167 0,-2.06771 0.65104,-3.05208 0.65104,-0.98958 2.03125,-0.98958 1.39583,0 2.03646,1.0052 0.64583,1 0.64583,3.02605 z m -1.36979,2.36458 q 0.18229,-0.42188 0.24479,-0.98958 0.0677,-0.57292 0.0677,-1.375 0,-0.79167 -0.0677,-1.375 -0.0625,-0.58334 -0.25,-0.98959 -0.18229,-0.40104 -0.5,-0.60416 -0.3125,-0.20313 -0.80729,-0.20313 -0.48959,0 -0.8125,0.20313 -0.31771,0.20312 -0.50521,0.61458 -0.17708,0.38542 -0.24479,1.00521 -0.0625,0.61979 -0.0625,1.35937 0,0.8125 0.0573,1.35938 0.0573,0.54687 0.24479,0.97916 0.17188,0.40626 0.48438,0.6198 0.3177,0.21354 0.83854,0.21354 0.48958,0 0.8125,-0.20313 0.32291,-0.20312 0.5,-0.61458 z"
         id="path10043"
         inkscape:connector-curvature="0"
         style="fill:none;fill-opacity:1;stroke-width:0.14429254;stroke-miterlimit:4;stroke-dasharray:none;stroke:#000000;stroke-opacity:1" />
    </g>
  </g>
</svg>
