; NON-PLATED HOLES START AT T1
; THROUGH (PLATED) HOLES START AT T100
M48
INCH
T1C0.086614
T100C0.035000
T101C0.035433
T102C0.038000
%
T1
X018699Y001581
X001735Y001722
X001524Y012808
X018875Y012914
T100
X010034Y004460
X017034Y010460
X016034Y010460
X014034Y010460
X018034Y004460
X013034Y010460
X008320Y013113
X007034Y010460
X015034Y004460
X010034Y010460
X009034Y004460
X012034Y004460
X008034Y004460
X004320Y013113
X011034Y004460
X018034Y010460
X015034Y010460
X009034Y010460
X017034Y004460
X012034Y010460
X008034Y010460
X016034Y004460
X011034Y010460
X014034Y004460
X013034Y004460
X007034Y004460
T101
X014760Y009341
X019560Y006221
X016680Y008861
X012360Y006221
T102
X014414Y001602
X002343Y010150
X014651Y012646
X015414Y001602
X015651Y012646
X002343Y011150
X002343Y008150
X016414Y001602
X016651Y012646
X002343Y009150
X002132Y004024
X002132Y005024
X011414Y001602
X011651Y012646
X012414Y001602
X012651Y012646
X013414Y001602
X013651Y012646
T00
M30
